<svg width="29" height="32" viewBox="0 0 29 32" fill="none" xmlns="http://www.w3.org/2000/svg">
<g clip-path="url(#clip0_1005_129)">
<path d="M10.7693 29.3332C11.4302 29.3332 11.9659 28.7362 11.9659 27.9998C11.9659 27.2635 11.4302 26.6665 10.7693 26.6665C10.1085 26.6665 9.57275 27.2635 9.57275 27.9998C9.57275 28.7362 10.1085 29.3332 10.7693 29.3332Z" stroke="#616467" stroke-width="2" stroke-linecap="round" stroke-linejoin="round"/>
<path d="M23.9314 29.3332C24.5923 29.3332 25.128 28.7362 25.128 27.9998C25.128 27.2635 24.5923 26.6665 23.9314 26.6665C23.2706 26.6665 22.7349 27.2635 22.7349 27.9998C22.7349 28.7362 23.2706 29.3332 23.9314 29.3332Z" stroke="#616467" stroke-width="2" stroke-linecap="round" stroke-linejoin="round"/>
<path d="M1.19653 1.3335H5.98286L9.18969 19.1868C9.29911 19.8007 9.59881 20.3521 10.0363 20.7446C10.4738 21.137 11.0213 21.3455 11.5829 21.3335H23.2136C23.7752 21.3455 24.3226 21.137 24.7601 20.7446C25.1977 20.3521 25.4974 19.8007 25.6068 19.1868L27.5213 8.00016H7.17944" stroke="#616467" stroke-width="2" stroke-linecap="round" stroke-linejoin="round"/>
</g>
<defs>
<clipPath id="clip0_1005_129">
<rect width="28.7179" height="32" fill="white"/>
</clipPath>
</defs>
</svg>
