<svg width="24" height="29" viewBox="0 0 24 29" fill="none" xmlns="http://www.w3.org/2000/svg">
<path d="M11.9998 0.578857C14.4852 0.578857 16.511 2.54682 16.6039 5.0095L16.6072 5.18623H22.4165C22.9696 5.18623 23.4181 5.63466 23.4181 6.18783C23.4181 6.70643 23.0239 7.13297 22.5189 7.18426L22.4165 7.18943H21.5423L20.1776 25.2742C20.0435 27.0505 18.5631 28.4234 16.7818 28.4234H7.21785C5.43649 28.4234 3.95612 27.0505 3.82206 25.2742L2.45654 7.18943H1.58315C1.06455 7.18943 0.638006 6.7953 0.586714 6.29024L0.581543 6.18783C0.581543 5.66923 0.975674 5.24269 1.48074 5.1914L1.58315 5.18623H7.39244C7.39244 2.64165 9.45523 0.578857 11.9998 0.578857ZM19.5336 7.18943H4.46607L5.81959 25.1235C5.87479 25.8549 6.48435 26.4202 7.21785 26.4202H16.7818C17.5153 26.4202 18.1248 25.8549 18.18 25.1235L19.5336 7.18943ZM14.604 11.3962C15.1226 11.3962 15.5491 11.7903 15.6004 12.2954L15.6056 12.3978V21.2119C15.6056 21.765 15.1571 22.2135 14.604 22.2135C14.0854 22.2135 13.6588 21.8193 13.6075 21.3143L13.6024 21.2119V12.3978C13.6024 11.8446 14.0508 11.3962 14.604 11.3962ZM9.39565 11.3962C9.91424 11.3962 10.3408 11.7903 10.3921 12.2954L10.3972 12.3978V21.2119C10.3972 21.765 9.94881 22.2135 9.39565 22.2135C8.87705 22.2135 8.45051 21.8193 8.39921 21.3143L8.39404 21.2119V12.3978C8.39404 11.8446 8.84247 11.3962 9.39565 11.3962ZM11.9998 2.58206C10.6112 2.58206 9.47638 3.66897 9.39977 5.03845L9.39565 5.18623H14.604C14.604 3.74799 13.4381 2.58206 11.9998 2.58206Z" fill="#211F1C"/>
</svg>
