<svg width="21" height="22" viewBox="0 0 21 22" fill="none" xmlns="http://www.w3.org/2000/svg">
<path d="M16.2103 10.1173H4.44151C3.51298 10.1173 2.76025 10.87 2.76025 11.7986V17.683C2.76025 18.6115 3.51298 19.3642 4.44151 19.3642H16.2103C17.1389 19.3642 17.8916 18.6115 17.8916 17.683V11.7986C17.8916 10.87 17.1389 10.1173 16.2103 10.1173Z" stroke="#878484" stroke-width="2" stroke-linecap="round" stroke-linejoin="round"/>
<path d="M6.1228 10.1172V6.75467C6.1228 5.63992 6.56563 4.57083 7.35388 3.78259C8.14212 2.99434 9.21121 2.55151 10.326 2.55151C11.4407 2.55151 12.5098 2.99434 13.298 3.78259C14.0863 4.57083 14.5291 5.63992 14.5291 6.75467V10.1172" stroke="#878484" stroke-width="2" stroke-linecap="round" stroke-linejoin="round"/>
</svg>
